<?xml version="1.0" standalone="no"?>
<!DOCTYPE svg PUBLIC "-//W3C//DTD SVG 20010904//EN"
 "http://www.w3.org/TR/2001/REC-SVG-20010904/DTD/svg10.dtd">
<svg version="1.0" xmlns="http://www.w3.org/2000/svg"
 width="901.000000pt" height="458.000000pt" viewBox="0 0 901.000000 458.000000"
 preserveAspectRatio="xMidYMid meet">

<g transform="translate(0.000000,458.000000) scale(0.100000,-0.100000)"
fill="#000000" stroke="none">
<path d="M0 2290 l0 -2290 2668 0 c2660 0 2668 0 2685 20 18 22 23 45 7 35 -6
-3 -10 -1 -10 4 0 6 5 11 10 11 6 0 10 13 10 29 0 17 4 32 9 35 5 4 8 14 7 24
-2 9 1 20 6 23 5 3 6 13 2 23 -5 13 -9 14 -20 5 -11 -9 -18 -8 -31 2 -15 13
-13 15 13 20 28 7 28 7 7 14 -13 4 -23 11 -23 15 0 4 -9 10 -20 13 -24 6 -27
27 -4 27 12 0 15 6 10 25 -8 31 28 68 57 59 19 -6 19 -5 3 17 -20 29 -20 39
-1 39 8 0 15 -7 15 -15 0 -8 4 -15 10 -15 5 0 7 6 5 12 -3 7 4 24 15 38 11 14
20 19 20 12 0 -7 4 -10 10 -7 33 20 -13 112 -61 122 -19 3 -35 15 -41 29 -7
14 -20 24 -32 24 -27 1 -56 23 -56 44 0 20 14 21 30 1 17 -20 30 -19 30 3 0
10 3 22 7 26 4 4 13 26 20 49 10 35 10 44 -2 57 -13 12 -19 12 -35 2 -17 -10
-21 -10 -26 3 -8 20 -84 21 -84 1 0 -21 -20 -30 -33 -17 -13 13 -27 14 -27 3
0 -15 37 -52 52 -52 8 0 23 -7 34 -15 17 -13 17 -14 2 -15 -10 0 -18 -5 -18
-11 0 -6 -9 -9 -19 -6 -12 3 -27 -3 -37 -14 -20 -22 -50 -25 -58 -6 -3 8 -8 7
-16 -6 -6 -9 -18 -17 -27 -17 -16 0 -102 51 -103 61 0 3 11 18 25 33 30 33 31
36 4 36 -11 0 -18 -4 -15 -9 3 -5 -1 -11 -9 -15 -8 -3 -15 -1 -15 4 0 16 -27
11 -34 -5 -3 -8 -13 -15 -23 -15 -15 0 -14 -4 7 -20 20 -15 23 -21 13 -31 -7
-7 -13 -21 -13 -30 0 -25 -27 -48 -49 -42 -18 5 -51 57 -51 81 0 6 -12 20 -26
31 -20 16 -30 18 -40 10 -19 -16 -32 -3 -26 26 2 15 0 25 -7 25 -6 0 -11 11
-11 24 0 13 -7 29 -15 36 -8 7 -15 25 -15 41 0 26 2 28 25 19 15 -6 26 -6 30
1 4 5 11 7 16 4 9 -6 29 7 57 39 9 10 27 30 40 44 12 14 22 29 22 33 0 5 7 9
16 9 10 0 13 6 10 18 -7 22 8 46 25 40 8 -3 22 4 33 14 11 10 22 14 26 9 3 -5
10 1 17 14 8 19 8 27 -3 36 -8 6 -12 14 -10 18 2 3 -7 11 -20 18 -22 10 -24 9
-24 -14 0 -36 -54 -87 -78 -73 -82 47 -89 103 -15 125 26 8 47 9 57 3 9 -5 49
-11 89 -14 52 -3 66 -2 50 5 -22 10 -29 51 -8 51 5 0 4 4 -3 8 -9 6 -6 14 13
30 14 12 30 22 35 22 6 0 30 20 54 44 l42 44 105 -4 c104 -4 105 -4 147 27 55
40 57 64 3 55 -28 -4 -42 -2 -51 9 -11 13 -14 13 -27 0 -22 -23 -31 -18 -35
17 -3 28 -7 33 -26 30 -13 -2 -29 2 -37 8 -8 7 -19 9 -24 6 -5 -4 -12 -2 -16
4 -10 16 -72 12 -79 -5 -8 -23 -24 -18 -55 16 -17 18 -31 27 -35 20 -4 -5 3
-15 14 -21 16 -9 18 -15 10 -30 -13 -25 -55 -26 -70 -2 -8 12 -13 13 -16 5 -4
-10 -9 -9 -21 2 -8 9 -23 13 -32 10 -10 -3 -27 4 -39 15 -23 21 -30 50 -12 50
6 0 10 5 10 10 0 6 -6 10 -14 10 -7 0 -18 6 -24 13 -11 13 -50 16 -68 5 -16
-10 -97 -3 -123 11 -15 8 -26 9 -30 3 -9 -13 -37 -21 -105 -27 -32 -3 -61 -6
-65 -7 -3 -1 -40 2 -81 6 -102 10 -162 -5 -197 -50 -35 -46 -56 -45 -47 1 l6
35 -34 -4 c-19 -2 -51 -16 -72 -30 -22 -14 -47 -26 -57 -26 -14 0 -19 -7 -19
-25 0 -25 0 -25 -30 -10 -38 20 -70 12 -63 -14 8 -29 -16 -35 -48 -12 -15 11
-38 21 -51 21 -41 0 -163 -33 -171 -47 -11 -18 -77 -17 -77 1 0 7 -11 16 -24
18 -35 7 -150 -9 -154 -21 -4 -12 -29 -15 -34 -3 -4 10 -101 42 -127 42 -12 0
-32 7 -44 15 -12 8 -51 22 -87 30 -36 9 -81 28 -101 41 -19 13 -48 24 -63 24
-24 0 -27 2 -16 15 23 27 -50 49 -162 50 -54 1 -100 4 -104 8 -4 4 -25 7 -46
7 -22 0 -46 6 -54 14 -21 21 -17 28 7 15 12 -6 67 -13 123 -14 56 -2 127 -8
158 -15 69 -15 86 -10 90 27 4 41 42 39 46 -2 2 -16 12 -35 23 -43 10 -7 19
-19 19 -26 0 -40 72 -62 222 -70 53 -3 112 -8 131 -11 26 -5 36 -3 40 10 5 13
11 14 27 5 11 -6 20 -8 20 -6 0 3 11 1 25 -4 16 -6 25 -6 25 0 0 6 4 10 9 10
5 0 7 -8 4 -19 -3 -14 2 -20 24 -24 29 -6 101 4 122 17 6 4 30 10 54 12 128
14 127 14 127 47 l0 30 23 -21 c29 -27 30 -27 84 -1 40 19 59 49 31 49 -6 0
-4 7 5 18 10 10 17 24 17 30 0 16 11 15 33 -3 21 -15 47 -10 47 9 0 13 21 26
75 48 28 11 29 12 7 16 -12 2 -20 7 -17 12 3 5 -3 16 -12 26 -17 17 -17 18 2
10 51 -21 128 -28 167 -15 21 7 42 17 46 24 4 6 19 18 34 28 24 15 26 20 16
36 -9 15 -8 24 5 45 23 35 75 36 113 1 14 -13 36 -27 48 -31 11 -4 29 -15 38
-25 13 -13 30 -17 70 -15 29 2 59 -2 67 -8 12 -9 13 -7 8 14 -5 22 -5 23 7 8
7 -10 16 -15 19 -11 4 3 2 12 -3 19 -6 6 -12 20 -15 30 -2 11 -6 27 -10 37 -5
12 -2 17 8 17 9 0 18 -4 22 -10 3 -5 15 0 26 11 15 15 19 28 14 47 l-6 27 17
-25 c10 -14 21 -27 26 -31 4 -3 11 -27 14 -55 4 -27 14 -58 23 -69 10 -11 22
-32 29 -47 12 -30 52 -40 52 -13 0 8 5 15 11 15 6 0 8 -8 4 -20 -7 -23 19 -33
80 -27 22 2 60 -2 85 -10 54 -15 53 -15 45 -3 -3 5 14 19 37 31 41 21 42 22
21 32 -27 12 -30 32 -6 41 14 6 11 10 -15 26 -18 11 -43 20 -56 20 -19 0 -22
-4 -19 -24 6 -28 -9 -40 -38 -31 -16 5 -19 13 -15 30 8 33 -31 76 -63 68 -20
-5 -22 -3 -17 14 4 13 -1 30 -15 46 -26 34 -7 37 48 6 29 -17 53 -21 103 -20
36 1 69 6 74 11 6 6 17 10 25 10 8 0 22 6 30 14 9 7 34 16 56 19 37 6 38 5 21
-8 -11 -8 -23 -15 -28 -15 -4 0 -8 -4 -8 -10 0 -5 8 -10 18 -10 10 0 28 -7 40
-16 24 -16 58 -12 47 6 -13 20 27 9 53 -15 34 -32 63 -29 80 8 17 36 41 45 58
23 7 -10 19 -16 26 -13 7 2 21 -3 31 -11 11 -10 21 -12 25 -7 13 19 51 35 57
25 11 -18 25 -11 26 13 0 12 3 16 6 10 7 -20 20 -15 26 8 7 27 33 19 30 -10
-4 -31 6 -26 23 14 28 67 10 165 -30 165 -17 0 -27 25 -20 44 5 13 47 26 86
26 19 0 20 -5 13 -70 -6 -60 -5 -70 9 -70 9 0 16 -4 16 -10 0 -5 -7 -10 -15
-10 -9 0 -15 -9 -15 -25 0 -31 13 -31 52 -4 23 17 28 27 24 45 -7 25 8 34 17
10 6 -16 57 -10 69 8 13 18 9 48 -8 67 -15 16 -14 19 3 38 10 10 30 22 46 26
46 12 30 25 -30 26 -32 1 18 7 111 15 93 7 182 18 198 25 20 8 48 40 84 95 30
46 54 85 54 87 0 3 21 41 46 86 25 45 43 85 40 90 -3 4 -33 11 -66 15 l-61 7
3 31 c3 28 9 34 51 48 45 16 52 24 129 141 149 225 150 237 13 231 -66 -4 -73
7 -47 70 12 29 22 57 22 62 0 12 -272 -3 -285 -15 -7 -7 -4 -15 8 -23 9 -7 17
-18 17 -25 0 -6 11 -11 24 -11 40 0 40 -18 1 -81 -20 -33 -34 -63 -31 -67 4
-3 56 -5 117 -4 60 2 109 1 109 -3 0 -3 -11 -23 -25 -45 -14 -22 -25 -43 -25
-48 0 -4 -14 -20 -31 -35 -30 -26 -35 -27 -148 -27 l-116 0 -21 -33 c-12 -18
-25 -44 -29 -57 -9 -34 -113 -218 -126 -226 -6 -4 -14 -1 -18 5 -4 6 -48 13
-102 16 l-94 6 -20 -31 c-11 -16 -23 -30 -27 -30 -5 0 -8 -9 -8 -21 0 -11 -4
-28 -10 -38 -12 -23 11 -58 43 -64 16 -3 14 -5 -10 -6 -35 -1 -63 20 -63 49 0
22 61 148 100 205 44 65 112 207 103 216 -4 4 -24 9 -43 11 -31 3 -35 6 -32
27 2 14 14 39 27 55 13 17 25 40 27 51 3 17 12 21 56 23 52 3 54 4 73 45 29
65 29 65 -63 53 -46 -7 -88 -15 -95 -19 -7 -4 -26 -1 -42 8 -24 12 -67 15
-223 14 -106 0 -215 -4 -243 -8 l-50 -7 100 -17 c55 -10 110 -19 122 -21 37
-4 37 -14 0 -21 -19 -4 -59 -2 -88 4 -30 6 -124 10 -209 10 -157 -1 -216 4
-302 23 -38 8 -50 7 -62 -5 -11 -10 -51 -16 -158 -19 -79 -3 -154 -10 -168
-16 l-25 -9 30 -6 c17 -4 75 -11 130 -17 66 -7 117 -18 150 -34 28 -13 59 -27
70 -31 19 -7 19 -8 -3 -14 -16 -4 -30 -22 -46 -62 -12 -31 -37 -80 -55 -109
-67 -108 -94 -116 -387 -112 l-222 2 -17 -26 c-9 -14 -19 -41 -22 -59 -5 -30
-3 -35 20 -40 14 -4 134 -5 265 -3 l240 3 -16 -29 c-29 -50 -67 -84 -108 -96
-54 -17 -279 -23 -456 -13 -138 8 -149 11 -187 37 -49 34 -58 61 -41 122 13
45 121 252 174 330 34 52 117 96 236 125 86 21 123 39 83 39 -12 0 -25 5 -28
10 -4 6 28 10 87 11 121 0 296 30 276 47 -15 12 -245 19 -485 14 -140 -3 -143
-4 -163 -29 -20 -26 -22 -26 -154 -27 -74 -1 -137 2 -141 6 -3 3 -2 14 4 25 6
10 22 42 37 72 l26 54 -44 -8 c-23 -4 -51 -7 -60 -7 -17 1 -73 -62 -98 -111
-14 -28 -16 -29 -67 -22 -43 5 -56 3 -70 -11 -15 -14 -31 -16 -109 -11 -51 4
-101 11 -111 16 -10 5 -26 12 -37 15 -11 4 -16 12 -12 21 5 13 -16 15 -152 14
-86 -1 -170 -5 -187 -8 -30 -7 -30 -7 13 -15 53 -10 54 -22 1 -29 -61 -8 -117
0 -163 24 -33 17 -59 21 -139 22 -97 0 -124 -6 -97 -23 8 -6 11 -10 5 -11 -30
-3 -97 4 -144 17 -29 7 -101 14 -158 15 -74 1 -103 4 -100 13 24 66 29 114 15
157 -21 64 -55 80 -175 85 -166 6 -265 13 -270 18 -4 4 19 8 107 19 15 2 -2 8
-41 15 -197 36 -819 -10 -1194 -89 -77 -17 -167 -35 -200 -41 -57 -10 -98 -28
-64 -28 8 0 33 -8 55 -19 78 -37 170 -78 224 -100 48 -18 124 -61 110 -61 -13
0 -103 31 -170 58 -41 17 -124 46 -185 66 -173 55 -205 68 -205 77 0 6 8 12
18 15 9 3 37 14 62 25 32 14 77 21 160 24 136 6 175 10 340 36 69 11 177 27
240 34 63 8 144 19 179 24 35 6 152 13 260 16 108 3 226 10 263 16 72 11 217
6 258 -9 14 -5 48 -12 75 -16 70 -10 134 -37 141 -61 4 -11 12 -27 20 -35 7
-8 18 -36 25 -62 12 -45 8 -76 -18 -144 -4 -11 13 -14 94 -14 55 0 102 3 106
6 10 11 88 17 192 16 64 0 94 3 85 9 -24 14 7 11 38 -4 22 -11 84 -12 322 -7
162 4 315 13 340 18 67 16 165 15 179 -2 13 -15 66 -32 89 -27 10 2 12 -4 7
-18 -5 -15 -2 -21 9 -21 9 0 16 8 16 18 0 10 7 27 15 39 8 12 12 28 9 37 -4
10 12 32 48 66 l53 50 95 0 c52 0 173 3 268 7 161 6 172 5 172 -12 0 -14 -3
-15 -15 -5 -12 10 -46 10 -158 2 -78 -6 -182 -11 -231 -11 -98 0 -126 -6 -126
-26 0 -23 19 -28 124 -31 56 -1 136 -6 179 -10 l78 -7 -6 -27 c-6 -26 -4 -28
42 -33 26 -3 125 -5 219 -5 146 0 178 3 214 19 23 11 51 19 61 19 11 0 27 4
37 9 25 13 87 28 176 41 98 15 106 18 106 40 0 11 4 21 9 24 5 4 8 31 6 61 -4
48 -2 55 18 61 12 4 26 13 32 21 9 12 50 16 137 13 35 -1 78 27 78 51 0 12 7
19 20 19 17 0 19 5 15 28 -6 25 -5 25 8 10 8 -10 17 -18 20 -18 7 0 -16 69
-34 102 -7 13 -12 29 -10 36 4 20 -30 42 -55 36 -15 -4 -27 1 -37 16 -11 16
-29 23 -71 27 -79 8 -80 23 -2 23 69 0 89 11 56 32 -11 7 -20 18 -20 25 0 7
-4 13 -9 13 -11 0 -32 56 -24 64 4 3 -1 6 -10 6 -17 0 -74 36 -102 64 -9 9
-22 16 -30 16 -15 0 -85 67 -85 81 0 13 11 11 24 -5 8 -11 20 -13 45 -8 44 10
50 27 14 46 -26 13 -26 15 -8 21 11 4 28 11 37 16 23 12 68 12 68 -1 0 -5 9
-1 20 10 20 20 61 19 102 -1 24 -12 94 26 147 80 l43 44 46 -16 c31 -12 49
-14 56 -7 18 18 68 11 87 -12 11 -11 19 -26 19 -32 0 -6 9 -19 20 -29 11 -9
20 -12 20 -7 0 6 11 10 25 10 14 0 25 -4 25 -10 0 -5 12 -16 26 -23 22 -12 36
-12 87 0 33 8 70 19 81 25 15 8 22 7 30 -3 6 -8 20 -14 31 -14 24 0 67 -71 62
-103 -7 -38 29 -93 93 -140 33 -25 60 -52 60 -60 0 -13 3 -13 12 -4 18 18 58
15 58 -4 0 -11 5 -14 18 -9 31 12 35 10 50 -18 11 -22 11 -31 2 -42 -7 -9 -9
-22 -5 -32 5 -10 9 -23 9 -30 2 -19 47 -53 72 -53 17 0 24 -7 29 -28 8 -38 59
-76 91 -68 14 4 24 2 24 -4 0 -5 -6 -10 -12 -10 -7 0 2 -14 19 -32 31 -31 34
-32 69 -19 51 18 51 9 0 -27 l-44 -32 21 -41 c11 -23 36 -57 54 -75 33 -33 51
-39 106 -35 18 2 27 -2 27 -13 0 -9 6 -13 14 -10 7 3 26 -6 40 -19 24 -22 25
-26 11 -40 -21 -21 -20 -24 19 -62 33 -32 35 -33 51 -15 10 12 14 26 10 39 -5
18 -2 20 27 17 18 -3 42 -7 54 -11 25 -8 54 17 54 46 0 11 9 38 21 60 17 34
24 40 43 35 15 -4 29 1 40 13 23 25 6 71 -26 72 -20 0 -21 2 -7 11 14 9 15 16
6 35 -5 13 -13 23 -17 23 -4 0 -13 20 -20 45 -11 39 -15 44 -35 39 -28 -7 -65
11 -65 31 0 19 39 45 67 45 31 0 53 -37 53 -90 0 -37 6 -53 28 -78 16 -18 36
-32 44 -32 9 0 18 -8 20 -18 12 -46 90 6 86 57 -1 17 5 38 15 49 22 24 21 34
-4 66 -29 37 -13 56 17 20 l24 -29 30 34 c16 19 29 46 30 60 0 14 1 51 3 81 1
30 -2 58 -8 62 -6 4 3 20 23 38 26 23 40 29 62 25 18 -3 30 0 33 9 4 10 15 12
49 5 24 -4 46 -8 51 -9 14 0 7 22 -14 39 l-21 17 21 0 c12 0 21 -4 21 -8 0 -4
16 -7 35 -6 40 1 70 28 62 57 -3 13 -1 18 9 14 8 -3 15 5 20 24 12 56 16 63
30 63 16 0 19 26 4 35 -8 5 -8 11 -1 19 7 8 33 11 80 9 60 -3 77 0 118 22 26
14 52 25 57 25 5 0 18 7 28 16 13 13 21 14 31 5 8 -6 25 -10 38 -9 16 2 24 -2
24 -12 0 -10 18 -20 50 -28 94 -24 112 -23 144 9 22 22 39 29 68 29 46 0 90
-19 96 -40 6 -21 82 -43 107 -30 24 13 130 13 130 0 0 -15 61 -12 94 5 15 8
35 15 44 15 13 0 13 -2 -1 -18 -16 -17 -15 -20 11 -41 15 -12 37 -24 50 -27
25 -7 29 -22 7 -30 -8 -3 -17 -14 -20 -24 -3 -11 -16 -22 -28 -26 -12 -4 -40
-18 -61 -32 -22 -13 -44 -25 -50 -26 -37 -7 -57 -19 -52 -32 3 -8 2 -12 -3 -9
-5 3 -12 1 -16 -5 -3 -5 6 -15 20 -22 22 -10 25 -16 20 -40 -6 -26 -4 -28 24
-28 17 0 31 -5 31 -11 0 -7 -10 -9 -24 -7 -20 4 -27 -1 -39 -34 -9 -21 -21
-38 -27 -38 -6 0 -20 20 -31 45 -21 47 -51 60 -63 28 -6 -15 -8 -15 -16 -3
-11 18 -25 5 -25 -23 0 -14 -5 -21 -16 -19 -17 2 -63 -44 -73 -75 -4 -11 -18
-25 -33 -32 -14 -6 -34 -23 -45 -36 -10 -13 -27 -26 -37 -30 -27 -8 -47 -51
-32 -68 9 -12 8 -16 -4 -21 -18 -7 -20 -50 -2 -64 7 -6 23 -8 36 -5 19 5 22
11 17 34 -6 30 4 36 38 23 11 -4 14 -13 10 -30 -4 -14 -2 -24 5 -24 6 0 8 -7
5 -15 -7 -18 -55 -20 -72 -3 -9 9 -12 9 -12 -2 0 -8 18 -34 40 -58 31 -33 40
-50 39 -75 -1 -23 -3 -26 -6 -9 -5 24 -33 31 -33 7 0 -8 -4 -15 -10 -15 -5 0
-10 15 -10 34 0 27 -7 39 -31 56 -16 12 -31 21 -32 19 -10 -16 -29 -87 -34
-127 -5 -45 -2 -54 31 -103 33 -49 35 -55 20 -66 -11 -8 -23 -9 -35 -3 -10 6
-21 10 -25 10 -11 0 6 -122 27 -184 36 -105 10 -163 -78 -176 -42 -7 -50 -5
-75 19 -39 37 -45 84 -20 163 44 135 75 362 57 405 -5 10 -7 24 -6 32 2 8 -3
25 -10 37 -10 19 -9 26 1 39 11 13 6 15 -36 15 -55 -1 -100 -30 -106 -70 -2
-13 -16 -30 -35 -40 -18 -9 -41 -28 -52 -41 -30 -38 -34 -17 -8 44 23 52 24
54 5 49 -10 -2 -30 -19 -43 -36 -21 -27 -23 -37 -15 -62 5 -16 12 -42 16 -59
6 -27 7 -28 15 -10 6 13 7 0 5 -39 -2 -32 1 -78 8 -101 20 -65 -9 -112 -44
-70 -11 13 -11 23 0 54 10 32 10 52 0 105 -16 86 -30 97 -61 48 -13 -20 -32
-57 -43 -82 -41 -102 -99 -174 -278 -350 -122 -120 -168 -171 -168 -188 0 -13
-7 -30 -15 -38 -31 -31 -6 -118 46 -162 37 -31 148 -84 159 -77 5 3 14 -4 20
-15 6 -11 15 -18 20 -15 5 3 11 -3 15 -14 7 -22 88 -56 112 -47 8 4 21 2 28
-4 7 -6 17 -10 21 -9 5 2 26 -2 48 -9 21 -6 51 -8 67 -5 25 5 29 2 29 -16 0
-27 -31 -63 -38 -43 -2 6 -7 12 -12 12 -4 0 -3 -11 3 -25 l12 -26 110 7 c61 3
106 3 102 -2 -4 -5 -22 -10 -40 -11 -18 -1 -52 -7 -77 -12 -25 -5 -63 -13 -85
-17 -44 -8 -59 -22 -44 -40 7 -9 6 -26 -4 -54 -12 -37 -12 -45 5 -79 18 -38
36 -50 93 -67 17 -5 30 -14 31 -19 3 -31 26 -65 44 -65 12 0 19 -4 16 -8 -3
-5 4 -16 15 -25 10 -9 19 -24 19 -32 0 -8 5 -15 11 -15 6 0 9 -7 5 -15 -7 -19
11 -19 55 -1 19 7 45 17 59 20 22 6 21 4 -7 -14 -35 -23 -40 -34 -22 -46 8 -5
6 -10 -5 -16 -23 -13 -20 -23 20 -68 29 -32 39 -38 51 -29 10 9 17 9 25 1 7
-7 30 -12 51 -12 32 0 45 -6 71 -34 37 -41 88 -54 141 -36 46 15 56 6 16 -15
-20 -10 -50 -15 -84 -13 l-52 3 0 -54 c0 -53 0 -54 37 -67 60 -20 107 -61 101
-86 -5 -18 -3 -20 25 -13 35 7 72 -8 72 -30 0 -8 -10 -16 -22 -17 -42 -2 -78
-15 -78 -27 0 -3 16 -15 35 -25 30 -17 40 -18 75 -7 36 11 44 10 70 -9 34 -24
41 -73 14 -88 -10 -6 -14 -19 -12 -38 2 -24 8 -29 30 -29 22 1 25 -2 17 -16
-5 -10 -14 -19 -21 -21 -17 -6 4 -61 45 -115 28 -38 36 -43 62 -38 40 6 85
-26 67 -48 -7 -8 -27 -21 -45 -28 -18 -7 -36 -19 -40 -26 -4 -7 -14 -13 -20
-13 -7 0 -27 -15 -44 -34 -56 -59 -56 -160 1 -207 12 -11 16 -21 10 -30 -5 -8
-7 -22 -6 -32 2 -10 -2 -24 -8 -32 -8 -10 -8 -19 0 -34 20 -38 -32 -87 -75
-71 -51 19 -55 54 -20 203 17 74 17 81 2 131 -32 100 -70 123 -219 131 -89 5
-110 -7 -89 -51 11 -25 1 -57 -17 -51 -4 1 -27 -4 -52 -10 -83 -22 -105 -26
-117 -24 -20 3 -43 -42 -43 -87 0 -26 4 -41 10 -37 6 4 8 -10 4 -37 -3 -27 0
-59 10 -87 20 -55 20 -130 1 -158 -23 -33 -83 -48 -129 -33 -20 6 -41 20 -46
30 -13 25 -13 87 2 149 12 54 7 71 -15 53 -9 -8 -17 -8 -24 -1 -16 16 8 61 29
55 9 -2 19 3 22 11 10 24 7 33 -9 33 -19 0 -19 19 0 26 17 7 21 34 4 34 -5 0
-23 15 -40 32 -31 34 -37 74 -18 109 8 15 7 24 -2 35 -10 12 -9 17 5 27 15 11
16 16 1 57 -27 80 -35 90 -62 79 -17 -6 -31 -5 -48 7 -17 11 -35 14 -57 10
-79 -16 -132 5 -143 56 -4 18 -16 52 -27 75 -28 60 -22 88 20 88 46 0 63 37
60 132 -2 82 -5 89 -33 94 -26 5 -32 45 -10 69 23 25 11 70 -18 67 -12 -1 -22
3 -22 8 -1 22 -31 55 -49 55 -14 0 -17 -5 -11 -22 4 -13 7 -31 8 -40 1 -10 6
-18 11 -18 5 0 -1 -9 -14 -20 -13 -11 -31 -20 -42 -20 -10 0 -18 -4 -18 -10 0
-20 -15 -9 -38 25 -20 31 -21 40 -11 79 9 38 14 43 40 44 74 2 113 23 69 37
-11 3 -20 13 -20 20 0 17 -36 39 -44 27 -2 -4 -1 -14 5 -22 24 -40 -14 -49
-58 -15 -28 23 -25 45 8 45 24 0 25 19 2 26 -10 3 -42 17 -71 31 -29 14 -55
23 -59 19 -4 -3 -15 1 -25 11 -18 16 -23 8 -12 -21 3 -8 12 -12 20 -9 10 4 14
-3 14 -24 0 -16 5 -34 12 -41 8 -8 8 -12 1 -12 -6 0 -13 -9 -16 -20 -7 -27
-67 -28 -84 -1 -12 19 -8 56 8 77 27 35 -59 164 -130 194 -17 7 -31 18 -31 25
0 20 -94 14 -98 -7 -2 -9 5 -18 15 -21 13 -3 10 -6 -12 -11 -52 -13 -75 -25
-75 -40 0 -15 -52 -46 -77 -46 -7 0 -13 -11 -13 -25 0 -14 -3 -25 -7 -26 -15
-1 -47 -8 -72 -15 -24 -6 -25 -7 -6 -14 18 -8 17 -10 -12 -21 -18 -8 -33 -19
-33 -27 0 -7 -6 -12 -12 -11 -34 4 -48 -2 -48 -21 0 -17 7 -20 48 -22 26 0 54
-1 62 0 19 1 61 -50 55 -66 -3 -8 -5 -20 -5 -27 0 -7 -16 -22 -35 -34 l-36
-21 -19 33 c-11 17 -23 43 -26 57 -11 48 -14 51 -33 45 -10 -3 -33 -7 -51 -10
-43 -5 -64 -23 -49 -41 9 -11 7 -14 -9 -14 -11 0 -23 8 -25 18 -3 9 -5 4 -6
-13 -1 -35 -26 -75 -46 -75 -19 0 -29 -38 -15 -55 16 -20 5 -45 -20 -45 -15 0
-20 -7 -20 -25 0 -14 -6 -36 -14 -48 -10 -14 -14 -43 -13 -84 2 -49 -1 -64
-13 -68 -13 -6 -12 -9 5 -21 11 -8 21 -20 21 -27 1 -7 2 -17 3 -24 0 -6 10
-15 21 -18 15 -5 20 -15 20 -41 0 -22 -5 -34 -14 -34 -8 0 -17 -11 -20 -25 -4
-14 -10 -25 -15 -25 -5 0 -7 -15 -5 -32 1 -18 3 -44 4 -58 2 -24 2 -24 8 -3 5
17 11 20 22 13 10 -6 12 -12 4 -20 -12 -12 -6 -70 8 -70 5 0 6 -4 3 -10 -3 -5
-1 -10 4 -10 6 0 11 7 11 15 0 20 23 19 51 -4 l23 -18 -22 -12 c-16 -8 -28 -9
-42 -1 -21 11 -59 -1 -50 -17 3 -4 -5 -12 -17 -18 -13 -5 -23 -14 -23 -18 0
-12 -62 -77 -74 -77 -5 0 -18 -7 -28 -17 -17 -15 -78 -26 -78 -14 0 8 -57 7
-65 -1 -4 -4 -14 0 -22 8 -9 8 -21 13 -28 10 -18 -6 -37 34 -38 82 -1 22 -5
38 -9 35 -4 -2 -23 -1 -42 2 -29 6 -35 12 -40 40 -6 30 -11 34 -59 45 -29 7
-57 17 -63 21 -16 13 -90 -59 -76 -73 7 -7 4 -16 -8 -28 -23 -23 -41 -88 -42
-149 -1 -64 25 -190 41 -200 8 -5 11 -13 8 -18 -3 -5 4 -30 17 -56 16 -30 20
-49 14 -55 -12 -12 -2 -82 11 -82 14 0 22 -33 11 -44 -14 -14 -13 -57 2 -54 6
2 14 -5 16 -14 2 -10 -1 -18 -7 -18 -6 0 -11 5 -11 11 0 5 -4 7 -10 4 -6 -3
-10 -13 -10 -21 0 -12 219 -14 1645 -14 l1645 0 0 30 c0 24 -4 30 -21 30 -12
0 -19 5 -16 13 2 6 12 11 21 11 14 -2 16 18 16 191 l0 192 -23 -4 c-31 -6 -55
21 -37 42 15 18 47 20 53 3 3 -7 6 125 6 295 1 199 -2 307 -9 307 -5 0 -10 5
-10 11 0 5 5 7 10 4 7 -4 10 573 10 1724 l0 1731 -1775 0 c-1571 0 -1775 -2
-1775 -15 0 -9 -10 -15 -26 -15 -19 0 -25 4 -20 15 5 13 -300 15 -2704 15
l-2710 0 0 -2290z m5292 2203 c13 -34 18 -93 6 -93 -4 0 -10 12 -14 28 -3 15
-10 40 -15 56 -11 36 -11 36 1 36 6 0 16 -12 22 -27z m73 7 c3 -5 1 -10 -4
-10 -6 0 -11 5 -11 10 0 6 2 10 4 10 3 0 8 -4 11 -10z m2760 -47 c-20 -47 -36
-66 -47 -55 -12 12 29 92 47 92 13 0 13 -4 0 -37z m815 -107 c0 -11 -19 -15
-25 -6 -3 5 1 10 9 10 9 0 16 -2 16 -4z m40 -82 c0 -8 -5 -12 -10 -9 -6 4 -8
11 -5 16 9 14 15 11 15 -7z m-1470 -124 c0 -5 -4 -10 -10 -10 -5 0 -10 5 -10
10 0 6 5 10 10 10 6 0 10 -4 10 -10z m1323 -117 c-13 -2 -35 -2 -50 0 -16 2
-5 4 22 4 28 0 40 -2 28 -4z m-223 -157 c0 -18 7 -39 15 -46 20 -17 14 -81 -9
-95 -36 -22 -52 50 -31 143 9 42 25 41 25 -2z m-3512 -7 c-2 -6 -8 -10 -13
-10 -5 0 -11 4 -13 10 -2 6 4 11 13 11 9 0 15 -5 13 -11z m3457 -19 c3 -5 -1
-10 -10 -10 -9 0 -13 5 -10 10 3 6 8 10 10 10 2 0 7 -4 10 -10z m-3680 -40
c-3 -5 -10 -10 -16 -10 -5 0 -9 5 -9 10 0 6 7 10 16 10 8 0 12 -4 9 -10z
m-155 -10 c0 -5 -4 -10 -10 -10 -5 0 -10 5 -10 10 0 6 5 10 10 10 6 0 10 -4
10 -10z m1980 -134 c0 -15 -24 -28 -34 -19 -7 7 13 33 25 33 5 0 9 -6 9 -14z
m1860 4 c0 -5 -5 -10 -11 -10 -5 0 -7 5 -4 10 3 6 8 10 11 10 2 0 4 -4 4 -10z
m-1741 -133 c-2 -1 -14 -11 -26 -21 -20 -16 -23 -17 -23 -3 0 8 8 18 18 20 21
6 37 8 31 4z m-4857 -77 c29 -20 38 -33 43 -68 7 -49 -1 -100 -21 -122 -7 -9
-25 -42 -40 -75 -15 -33 -45 -86 -66 -117 -21 -31 -38 -61 -38 -67 0 -5 -4
-11 -8 -13 -4 -1 -19 -21 -32 -43 -32 -52 -99 -125 -115 -125 -8 0 -15 -3 -17
-7 -1 -5 -18 -16 -36 -25 -35 -19 -87 -25 -78 -9 3 4 -23 8 -58 7 -35 0 -62
-4 -59 -8 6 -12 -5 -10 -27 4 -15 10 -22 9 -38 -5 -26 -23 -46 -22 -39 3 4 17
1 19 -18 14 -12 -3 -26 -1 -30 5 -3 6 -10 9 -15 6 -5 -3 -11 -1 -15 5 -9 15
-25 12 -25 -5 0 -8 -4 -15 -9 -15 -5 0 -18 -3 -28 -6 -10 -3 -8 1 6 9 15 9 20
17 12 21 -6 4 -11 2 -11 -3 0 -6 -15 -11 -32 -10 -28 1 -30 2 -10 8 l24 6 -26
30 c-21 23 -28 27 -35 16 -6 -9 -11 -10 -15 -2 -4 6 -2 11 3 11 6 0 11 7 11
15 0 9 -10 15 -27 16 -20 0 -12 5 27 16 37 10 100 15 194 14 144 0 179 7 222
45 25 23 134 236 134 263 0 44 -12 46 -424 52 -424 7 -425 7 -596 72 l-65 24
51 11 c70 15 317 43 659 76 22 2 173 3 336 2 l296 -1 35 -25z m5053 -20 c3 -5
-1 -10 -9 -10 -9 0 -16 5 -16 10 0 6 4 10 9 10 6 0 13 -4 16 -10z m-2988 -6
c-3 -3 -12 -4 -19 -1 -8 3 -5 6 6 6 11 1 17 -2 13 -5z m268 -21 c-6 -25 -24
-47 -32 -39 -2 1 2 17 8 34 14 40 34 43 24 5z m-35 -67 c0 -3 -4 -8 -10 -11
-5 -3 -10 -1 -10 4 0 6 5 11 10 11 6 0 10 -2 10 -4z m-3534 -131 c3 -8 -10
-40 -29 -72 -150 -249 -227 -395 -221 -417 4 -12 2 -16 -5 -12 -12 8 -123
-159 -233 -354 -11 -19 -29 -44 -39 -56 -10 -11 -19 -24 -19 -30 0 -5 -14 -25
-30 -44 l-30 -35 33 65 c18 36 59 108 90 162 31 53 57 99 57 102 0 3 14 28 31
56 17 27 28 56 26 62 -3 8 -6 5 -6 -5 -1 -10 -6 -15 -12 -12 -6 4 -8 13 -6 20
3 6 -4 20 -15 29 -20 18 -20 18 33 66 47 42 53 52 51 83 -2 34 -1 35 42 41 42
7 49 13 96 76 27 39 50 72 50 75 0 3 8 18 19 33 58 83 91 142 91 161 0 24 18
29 26 6z m474 6 c0 -6 -4 -12 -9 -16 -6 -3 -29 -40 -52 -83 -23 -42 -57 -99
-76 -125 -27 -38 -31 -51 -23 -66 8 -16 5 -21 -18 -29 -15 -6 -21 -11 -14 -11
7 -1 12 -14 11 -33 -1 -25 -3 -28 -7 -13 -7 19 -52 31 -52 13 0 -5 -13 -2 -30
7 -16 9 -30 22 -30 30 0 12 -16 15 -80 15 -64 0 -80 -3 -80 -15 0 -9 -6 -12
-15 -9 -8 4 -15 1 -15 -5 0 -7 -17 -38 -39 -69 -21 -31 -42 -68 -46 -82 -4
-14 -18 -38 -30 -55 -42 -55 -175 -307 -175 -330 0 -8 11 -22 25 -31 24 -16
30 -15 103 9 42 14 91 28 107 32 22 4 36 16 50 43 36 66 147 266 162 290 8 13
17 22 19 19 3 -2 -36 -86 -86 -186 l-91 -181 -42 -11 c-23 -6 -101 -31 -174
-55 -136 -45 -183 -53 -183 -31 0 7 27 58 61 112 66 108 107 179 204 350 34
61 87 149 118 197 31 48 85 142 119 208 l62 120 163 0 c95 0 163 -4 163 -9z
m4618 -37 c9 -3 6 -14 -13 -41 -14 -21 -25 -42 -25 -48 -1 -5 -11 -22 -23 -36
l-22 -26 -219 -7 c-154 -5 -227 -11 -245 -21 -24 -12 -70 -86 -148 -238 -27
-51 -17 -53 253 -60 136 -4 249 -8 251 -10 2 -2 -12 -28 -32 -57 -19 -28 -35
-56 -35 -60 0 -27 -203 -53 -335 -42 -91 7 -67 19 43 21 74 1 73 10 -3 47 -30
14 -57 29 -60 35 -4 5 -21 9 -40 9 -28 0 -33 3 -30 20 2 11 0 20 -5 20 -4 0
-16 3 -24 6 -14 5 -15 2 -6 -20 8 -23 7 -26 -10 -26 -23 0 -26 -10 -8 -28 9
-9 7 -13 -7 -18 -12 -5 -22 -1 -31 11 -12 16 -14 17 -14 2 0 -26 -35 -40 -54
-21 -19 18 -19 20 -6 45 7 13 7 19 0 19 -5 0 -10 -7 -10 -15 0 -8 -7 -15 -16
-15 -11 0 -14 -5 -10 -16 6 -16 -6 -17 -54 -2 -8 3 -12 3 -7 1 4 -3 5 -9 2
-14 -4 -5 -18 -1 -32 8 -23 16 -25 21 -20 69 6 62 61 174 149 307 59 90 67
112 46 120 -7 3 -4 6 7 6 10 1 65 17 121 36 81 28 125 37 220 44 110 8 422 5
452 -5z m-2370 -6 c-2 -4 12 -23 31 -42 31 -32 33 -38 27 -78 -9 -56 -63 -197
-85 -223 -10 -11 -41 -54 -70 -96 -62 -91 -85 -114 -106 -105 -15 5 -15 7 0
22 9 9 13 19 10 22 -3 4 -10 0 -14 -7 -5 -7 -21 -14 -37 -16 -16 -1 -37 -6
-46 -10 -18 -7 -115 -1 -124 8 -3 3 -7 13 -8 24 -2 10 -12 18 -22 19 -10 1
-21 2 -24 3 -6 3 -66 11 -92 14 -10 1 -18 5 -18 9 0 4 35 8 79 8 108 0 141 16
180 85 17 30 45 80 62 110 19 34 29 65 27 82 l-3 28 -130 3 c-132 2 -169 -5
-186 -38 -4 -8 -33 -61 -63 -118 -31 -56 -56 -107 -56 -114 0 -6 7 -19 16 -29
20 -22 1 -35 -20 -13 -17 16 -56 11 -56 -7 0 -6 9 -8 19 -4 23 7 39 -13 17
-21 -9 -3 -16 -12 -16 -19 0 -14 -40 -32 -80 -37 -14 -2 -25 -9 -25 -17 0 -25
-64 -35 -102 -17 -51 24 -58 55 -28 128 27 67 140 266 192 339 19 27 31 53 27
62 -6 16 7 21 111 46 45 10 616 10 613 -1z m-1148 -6 c0 -4 -7 -18 -16 -30
-24 -34 -9 -39 39 -14 62 33 155 52 247 52 80 0 81 0 75 -22 -4 -13 -13 -27
-19 -33 -7 -5 -19 -21 -26 -35 -21 -40 -72 -100 -81 -95 -4 3 -66 1 -138 -4
-185 -13 -185 -13 -291 -209 -47 -86 -86 -162 -88 -169 -4 -15 -30 -24 -37
-13 -4 6 -1 10 4 10 6 0 11 7 11 15 0 9 18 44 39 78 22 34 42 76 46 92 l6 30
-17 -29 -16 -29 -14 24 -13 24 -1 -26 c0 -15 -6 -27 -12 -26 -52 2 -77 -5 -82
-20 -3 -10 -4 -4 -2 14 1 18 -1 30 -5 27 -4 -2 -14 5 -22 16 -16 23 -21 19
-55 -41 -39 -70 -47 -83 -64 -103 -43 -48 -13 14 106 221 114 197 154 276 149
291 -4 9 28 12 136 12 78 0 141 -3 141 -8z m1715 -14 c4 -4 -15 -40 -42 -80
-28 -40 -67 -104 -88 -143 -20 -38 -55 -98 -76 -132 -22 -35 -58 -93 -81 -130
-68 -111 -113 -178 -120 -181 -5 -2 -8 -11 -8 -20 -1 -33 -84 -126 -140 -156
-44 -24 -68 -30 -129 -32 -42 -1 -62 0 -46 2 17 3 47 12 68 21 31 13 36 20 31
37 -4 12 -12 24 -18 28 -6 4 -7 8 -3 8 5 0 5 5 2 10 -4 7 -11 8 -18 2 -7 -6
-24 -10 -39 -10 -19 0 -28 7 -32 24 -10 39 -26 28 -27 -18 -1 -24 -4 -33 -6
-20 -3 14 -12 22 -26 23 -22 2 -22 2 1 6 37 7 26 30 -13 25 -29 -3 -33 -7 -25
-21 6 -13 4 -20 -10 -29 -12 -7 -21 -8 -25 -2 -3 6 -34 9 -68 9 -50 -1 -56 -3
-32 -9 28 -7 27 -8 -14 -9 -37 -1 -42 -3 -31 -16 11 -13 8 -16 -19 -21 -17 -4
-28 -11 -24 -17 7 -11 -79 -5 -162 12 -351 71 -512 89 -550 61 -19 -14 -93
-22 -100 -11 -3 6 -15 11 -25 11 -10 0 -23 6 -27 14 -19 31 -514 25 -727 -9
-50 -8 -102 -15 -116 -14 -45 1 40 26 131 38 46 7 111 16 144 21 134 22 200
30 420 50 192 18 246 19 325 10 225 -26 409 -41 619 -52 207 -10 229 -9 280 7
113 36 142 51 185 95 43 45 186 271 186 295 0 7 7 18 15 25 9 7 39 54 69 104
81 141 98 177 87 190 -7 8 30 11 144 11 84 0 156 -3 160 -7z m-2954 -276 c-7
-2 -18 1 -23 6 -8 8 -4 9 13 5 13 -4 18 -8 10 -11z m19 -32 c0 -5 -4 -10 -9
-10 -6 0 -13 5 -16 10 -3 6 1 10 9 10 9 0 16 -4 16 -10z m-140 -30 c0 -5 -4
-10 -10 -10 -5 0 -10 5 -10 10 0 6 5 10 10 10 6 0 10 -4 10 -10z m940 -45 c0
-14 -4 -25 -9 -25 -4 0 -6 11 -3 25 2 14 6 25 8 25 2 0 4 -11 4 -25z m-793 -1
c-3 -3 -12 -4 -19 -1 -8 3 -5 6 6 6 11 1 17 -2 13 -5z m111 -1 c-10 -2 -28 -2
-40 0 -13 2 -5 4 17 4 22 1 32 -1 23 -4z m97 -3 c-4 -6 22 -10 72 -10 70 -1
76 -2 54 -14 -14 -8 -59 -14 -105 -15 -45 0 -152 -4 -238 -7 -106 -5 -158 -3
-158 4 0 6 46 12 113 16 176 10 231 17 216 27 -10 6 -4 9 19 9 20 0 31 -4 27
-10z m-615 -20 c0 -12 7 -20 16 -20 17 0 14 -22 -4 -28 -7 -2 -12 3 -12 12 0
9 -4 16 -10 16 -5 0 -10 9 -10 20 0 11 5 20 10 20 6 0 10 -9 10 -20z m1323
-12 c9 -31 2 -33 -11 -3 -6 14 -8 25 -3 25 5 0 11 -10 14 -22z m27 12 c0 -5
-4 -10 -10 -10 -5 0 -10 5 -10 10 0 6 5 10 10 10 6 0 10 -4 10 -10z m-72 -12
c-6 -18 -28 -21 -28 -4 0 9 7 16 16 16 9 0 14 -5 12 -12z m-1048 -8 c0 -5 -5
-10 -11 -10 -5 0 -7 5 -4 10 3 6 8 10 11 10 2 0 4 -4 4 -10z m5439 -89 c-17
-33 -39 -67 -49 -76 -35 -32 -322 -57 -400 -34 l-45 12 68 11 c43 7 66 15 60
21 -4 5 -1 4 8 -3 18 -14 180 -19 244 -8 34 6 45 15 73 57 18 28 32 53 29 55
-6 6 -52 -37 -49 -47 1 -5 -2 -9 -8 -9 -5 0 -10 7 -10 15 0 8 -6 15 -12 16 -7
0 -4 4 7 9 16 7 11 9 -21 9 -23 1 -57 4 -75 9 -30 6 -25 8 36 13 39 3 94 6
123 7 l53 2 -32 -59z m-106 5 c8 -20 -1 -26 -39 -26 -27 0 -32 4 -31 20 1 15
8 20 33 20 18 0 34 -6 37 -14z m-383 -6 c0 -5 -4 -10 -9 -10 -6 0 -13 5 -16
10 -3 6 1 10 9 10 9 0 16 -4 16 -10z m-2847 -27 c-7 -2 -19 -2 -25 0 -7 3 -2
5 12 5 14 0 19 -2 13 -5z m2907 -3 c0 -5 -6 -10 -14 -10 -8 0 -18 5 -21 10 -3
6 3 10 14 10 12 0 21 -4 21 -10z m-2872 -19 c22 -13 -10 -21 -88 -21 -84 0
-122 12 -70 21 53 10 143 10 158 0z m1927 -32 c17 -6 15 -8 -11 -8 -16 -1 -39
6 -50 14 -18 14 -17 15 11 9 17 -4 39 -11 50 -15z m222 15 c-3 -3 -12 -4 -19
-1 -8 3 -5 6 6 6 11 1 17 -2 13 -5z m981 -1 c-10 -2 -26 -2 -35 0 -10 3 -2 5
17 5 19 0 27 -2 18 -5z m-1145 -20 c-7 -2 -19 -2 -25 0 -7 3 -2 5 12 5 14 0
19 -2 13 -5z m-1065 -100 l67 -7 -45 -7 c-47 -7 -120 7 -120 24 0 5 7 7 15 3
8 -3 46 -9 83 -13z m663 -9 c-18 -8 -65 -16 -105 -16 -139 -2 -319 2 -314 8 3
3 79 5 169 6 90 0 184 4 209 8 68 11 78 10 41 -6z m909 -26 c0 -5 -157 -8
-349 -8 -193 0 -352 3 -354 8 -3 4 154 7 349 7 195 0 354 -3 354 -7z m277 -14
c-3 -3 -12 -4 -19 -1 -8 3 -5 6 6 6 11 1 17 -2 13 -5z m-4966 -47 c-10 -9 -11
-8 -5 6 3 10 9 15 12 12 3 -3 0 -11 -7 -18z m2838 -9 c-63 -93 -155 -160 -255
-187 -69 -19 -225 -31 -312 -24 -45 3 -80 8 -78 11 3 2 54 4 113 3 120 -2 286
29 358 67 47 25 135 96 165 135 30 38 36 34 9 -5z m-482 -23 c0 -8 -4 -12 -9
-9 -4 3 -8 9 -8 15 0 5 4 9 8 9 5 0 9 -7 9 -15z m-2383 -20 c-4 -8 -11 -15
-16 -15 -6 0 -5 6 2 15 7 8 14 15 16 15 2 0 1 -7 -2 -15z m1373 5 c26 -5 111
-21 188 -35 77 -14 203 -39 280 -55 77 -16 158 -32 180 -36 27 -5 33 -9 19
-11 -23 -4 -116 11 -309 51 -283 58 -766 77 -1285 51 l-85 -4 105 14 c58 8
164 18 235 23 182 13 614 14 672 2z m1028 -30 c-8 -13 -85 -13 -105 0 -11 7 4
10 48 10 40 0 61 -4 57 -10z m-2078 -16 c-3 -3 -12 -4 -19 -1 -8 3 -5 6 6 6
11 1 17 -2 13 -5z m-77 -8 c0 -2 -46 -9 -102 -16 -57 -6 -112 -14 -123 -17
-15 -4 -17 -2 -9 6 15 17 234 42 234 27z m-295 -15 c-14 -13 -162 -59 -210
-65 -25 -3 -5 6 50 24 50 16 101 33 115 38 33 13 57 15 45 3z m3445 -128 c0
-24 -15 -14 -27 18 -12 31 -12 31 7 14 11 -10 20 -24 20 -32z m-3795 22 c-16
-8 -39 -14 -50 -14 -13 0 -7 5 15 13 46 18 73 18 35 1z m-345 -26 c-7 -11 -14
-18 -17 -15 -3 3 0 12 7 21 18 21 23 19 10 -6z m4760 -9 c0 -5 -5 -10 -11 -10
-5 0 -7 5 -4 10 3 6 8 10 11 10 2 0 4 -4 4 -10z m3135 -10 c4 -6 10 -8 15 -5
5 3 21 0 37 -7 15 -6 31 -11 34 -10 4 1 15 -8 25 -19 17 -19 17 -21 -7 -44
-22 -23 -26 -23 -51 -11 -23 12 -28 12 -42 -2 -15 -15 -16 -15 -16 4 0 11 -9
30 -20 42 -17 18 -19 25 -8 42 14 22 24 25 33 10z m-7725 -5 c0 -8 -81 -46
-161 -75 -56 -20 -79 -24 -79 -15 0 9 148 68 238 94 1 1 2 -1 2 -4z m3970 -10
c0 -8 -4 -15 -10 -15 -5 0 -10 7 -10 15 0 8 5 15 10 15 6 0 10 -7 10 -15z
m114 9 c9 -3 16 -10 16 -15 0 -14 -24 -11 -46 6 -16 12 -17 14 -2 15 9 0 23
-3 32 -6z m-4286 -34 c-7 -10 -14 -18 -15 -16 -6 6 9 36 18 36 5 0 4 -9 -3
-20z m4245 -16 c4 -21 1 -25 -17 -22 -14 2 -22 11 -24 30 -3 22 0 26 16 21 11
-3 22 -16 25 -29z m-3103 -22 c0 -14 -11 -21 -26 -15 -21 8 -17 23 6 23 11 0
20 -4 20 -8z m2800 -37 c19 -23 4 -48 -25 -42 -14 2 -28 0 -31 -4 -8 -14 -24
-10 -24 6 0 8 7 15 15 15 8 0 15 6 15 14 0 13 13 23 31 25 4 1 12 -6 19 -14z
m-2150 -59 c0 -2 -11 -6 -25 -8 -13 -3 -22 -1 -19 3 5 9 44 13 44 5z m2228
-44 c2 -7 -3 -12 -12 -12 -9 0 -16 7 -16 16 0 17 22 14 28 -4z m-1924 2 c18
-7 12 -24 -10 -24 -8 0 -14 7 -14 15 0 17 2 18 24 9z m-344 -24 c0 -5 -4 -10
-10 -10 -5 0 -10 5 -10 10 0 6 5 10 10 10 6 0 10 -4 10 -10z m533 -2 c43 -21
31 -28 -18 -11 -25 8 -45 17 -45 19 0 8 37 3 63 -8z m100 -45 c-7 -2 -19 -2
-25 0 -7 3 -2 5 12 5 14 0 19 -2 13 -5z m1317 -28 c6 -8 9 -19 6 -24 -4 -5 -2
-12 4 -16 16 -10 12 -25 -7 -25 -20 0 -45 44 -36 66 7 18 17 18 33 -1z m86
-10 c-4 -10 1 -15 14 -15 21 0 27 -15 10 -25 -5 -3 -20 3 -32 15 -19 18 -20
22 -8 30 21 13 23 12 16 -5z m-261 -25 c6 -10 -44 -35 -53 -26 -2 3 -2 12 1
21 7 17 42 21 52 5z m-15 -56 c0 -2 -9 -4 -21 -4 -11 0 -18 4 -14 10 5 8 35 3
35 -6z m50 6 c0 -5 -7 -10 -16 -10 -8 0 -12 5 -9 10 3 6 10 10 16 10 5 0 9 -4
9 -10z m4815 -20 c3 -5 1 -10 -4 -10 -6 0 -11 5 -11 10 0 6 2 10 4 10 3 0 8
-4 11 -10z m-5835 -51 c0 -5 -7 -9 -15 -9 -15 0 -20 12 -9 23 8 8 24 -1 24
-14z m4220 6 c0 -8 -9 -15 -20 -15 -22 0 -27 15 -7 23 21 9 27 7 27 -8z m1885
-25 c-3 -5 -15 -10 -26 -10 -11 0 -17 5 -14 10 3 6 15 10 26 10 11 0 17 -4 14
-10z m-75 -10 c0 -5 -17 -10 -37 -9 -31 0 -34 2 -18 9 28 12 55 12 55 0z
m-3720 -31 c0 -7 -26 -19 -41 -19 -5 0 -9 6 -9 13 0 6 11 12 25 12 14 0 25 -3
25 -6z m-311 -8 c17 -11 7 -45 -12 -39 -13 5 -23 48 -10 48 4 0 14 -4 22 -9z
m-599 -30 c0 -14 -18 -23 -30 -16 -6 4 -8 11 -5 16 8 12 35 12 35 0z m680 -1
c0 -5 -2 -10 -4 -10 -3 0 -8 5 -11 10 -3 6 -1 10 4 10 6 0 11 -4 11 -10z
m-1710 -55 c0 -8 -9 -15 -20 -15 -20 0 -26 11 -13 23 12 13 33 7 33 -8z m180
-5 c0 -5 -4 -10 -10 -10 -5 0 -10 5 -10 10 0 6 5 10 10 10 6 0 10 -4 10 -10z
m580 6 c0 -11 -19 -15 -25 -6 -3 5 1 10 9 10 9 0 16 -2 16 -4z m2725 -26 c3
-5 1 -10 -4 -10 -6 0 -11 5 -11 10 0 6 2 10 4 10 3 0 8 -4 11 -10z m2245 0 c0
-5 -4 -10 -10 -10 -5 0 -10 5 -10 10 0 6 5 10 10 10 6 0 10 -4 10 -10z m-4093
-6 c-3 -3 -12 -4 -19 -1 -8 3 -5 6 6 6 11 1 17 -2 13 -5z m325 -36 c-15 -15
-26 -4 -18 18 5 13 9 15 18 6 9 -9 9 -15 0 -24z m2658 28 c0 -3 -4 -8 -10 -11
-5 -3 -10 -1 -10 4 0 6 5 11 10 11 6 0 10 -2 10 -4z m-1048 -34 c23 -20 6 -42
-32 -42 -39 0 -54 21 -34 48 15 23 35 21 66 -6z m-1682 -2 c0 -5 -4 -10 -10
-10 -5 0 -10 5 -10 10 0 6 5 10 10 10 6 0 10 -4 10 -10z m-562 -93 c2 -10 -3
-17 -12 -17 -18 0 -29 16 -21 31 9 14 29 6 33 -14z m70 2 c-5 -14 -21 -14 -26
0 -2 6 4 11 13 11 9 0 15 -5 13 -11z m-248 -40 c0 -15 -5 -20 -22 -17 -27 4
-35 25 -11 31 31 8 33 7 33 -14z m468 -21 c-6 -18 -28 -21 -28 -4 0 9 7 16 16
16 9 0 14 -5 12 -12z m-692 -55 c-10 -10 -19 5 -10 18 6 11 8 11 12 0 2 -7 1
-15 -2 -18z m2568 6 c-8 -14 -24 -10 -24 6 0 9 6 12 15 9 8 -4 12 -10 9 -15z
m-2069 -29 c3 -5 1 -10 -4 -10 -6 0 -11 5 -11 10 0 6 2 10 4 10 3 0 8 -4 11
-10z m55 -20 c0 -5 -4 -10 -10 -10 -5 0 -10 5 -10 10 0 6 5 10 10 10 6 0 10
-4 10 -10z m340 -10 c0 -5 -5 -10 -11 -10 -5 0 -7 5 -4 10 3 6 8 10 11 10 2 0
4 -4 4 -10z m3980 0 c0 -5 -7 -10 -15 -10 -8 0 -15 5 -15 10 0 6 7 10 15 10 8
0 15 -4 15 -10z m50 -11 c0 -5 -7 -9 -15 -9 -15 0 -20 12 -9 23 8 8 24 -1 24
-14z m-4240 -83 c0 -8 -4 -17 -9 -21 -12 -7 -24 12 -16 25 9 15 25 12 25 -4z
m4370 -51 c0 -8 -7 -15 -15 -15 -16 0 -20 12 -8 23 11 12 23 8 23 -8z m-1260
-96 c0 -5 -4 -9 -10 -9 -5 0 -10 7 -10 16 0 8 5 12 10 9 6 -3 10 -10 10 -16z
m40 0 c0 -24 -23 -21 -28 4 -2 10 3 17 12 17 10 0 16 -9 16 -21z m-3140 7 c0
-11 -19 -15 -25 -6 -3 5 1 10 9 10 9 0 16 -2 16 -4z m-77 -22 c8 -8 -3 -34
-14 -34 -5 0 -9 9 -9 20 0 19 11 26 23 14z m8 -97 c-1 -12 -15 -9 -19 4 -3 6
1 10 8 8 6 -3 11 -8 11 -12z m799 -27 c0 -5 -5 -10 -11 -10 -5 0 -7 5 -4 10 3
6 8 10 11 10 2 0 4 -4 4 -10z m420 0 c0 -5 -4 -10 -10 -10 -5 0 -10 5 -10 10
0 6 5 10 10 10 6 0 10 -4 10 -10z m-1360 -30 c0 -5 -9 -10 -21 -10 -11 0 -17
5 -14 10 3 6 13 10 21 10 8 0 14 -4 14 -10z m4020 0 c0 -5 -5 -10 -11 -10 -5
0 -7 5 -4 10 3 6 8 10 11 10 2 0 4 -4 4 -10z m158 -18 c2 -14 -2 -22 -12 -22
-19 0 -29 17 -22 36 8 22 30 12 34 -14z m-3334 -37 c-4 -8 -10 -12 -15 -9 -11
6 -2 24 11 24 5 0 7 -7 4 -15z m-104 -30 c0 -8 -4 -15 -9 -15 -13 0 -22 16
-14 24 11 11 23 6 23 -9z m-170 -9 c0 -16 -18 -31 -27 -22 -8 8 5 36 17 36 5
0 10 -6 10 -14z m1600 -6 c0 -5 -7 -10 -15 -10 -8 0 -15 5 -15 10 0 6 7 10 15
10 8 0 15 -4 15 -10z m-1436 -59 c3 -5 -1 -15 -10 -22 -9 -7 -13 -21 -10 -34
7 -27 -24 -58 -51 -53 -27 5 -44 46 -31 74 9 18 19 24 45 24 18 0 33 5 33 10
0 12 17 13 24 1z m291 -1 c3 -5 1 -10 -4 -10 -6 0 -11 5 -11 10 0 6 2 10 4 10
3 0 8 -4 11 -10z m2445 0 c0 -5 -5 -10 -11 -10 -5 0 -7 5 -4 10 3 6 8 10 11
10 2 0 4 -4 4 -10z m80 0 c0 -5 -7 -10 -16 -10 -8 0 -12 5 -9 10 3 6 10 10 16
10 5 0 9 -4 9 -10z m-1775 -20 c-3 -5 -10 -10 -16 -10 -5 0 -9 5 -9 10 0 6 7
10 16 10 8 0 12 -4 9 -10z m2774 -22 c5 -13 5 -24 -1 -26 -12 -5 -38 18 -38
34 0 23 30 16 39 -8z m-2809 -14 c0 -8 -4 -14 -9 -14 -11 0 -22 26 -14 34 9 9
23 -3 23 -20z m-167 -24 c19 0 65 -51 72 -82 7 -26 -5 -58 -32 -90 -14 -16
-17 -15 -38 10 -20 23 -25 24 -39 13 -14 -11 -16 -11 -16 3 0 9 8 16 18 17 11
0 7 4 -10 11 -28 10 -34 29 -30 97 3 48 10 55 37 37 13 -9 30 -16 38 -16z
m1975 18 c-6 -18 -28 -21 -28 -4 0 9 7 16 16 16 9 0 14 -5 12 -12z m-2978 -30
c0 -16 -3 -19 -11 -11 -6 6 -8 16 -5 22 11 17 16 13 16 -11z m-504 -9 c10 -17
-13 -36 -27 -22 -12 12 -4 33 11 33 5 0 12 -5 16 -11z m854 -76 c0 -20 -24
-11 -28 10 -2 12 1 15 12 11 9 -3 16 -13 16 -21z m2525 -3 c3 -10 1 -28 -5
-40 -9 -16 -15 -18 -30 -10 -24 13 -25 28 -3 52 21 23 30 23 38 -2z m-1768
-22 c-3 -8 -6 -5 -6 6 -1 11 2 17 5 13 3 -3 4 -12 1 -19z m2873 7 c0 -8 -4
-15 -10 -15 -5 0 -10 7 -10 15 0 8 5 15 10 15 6 0 10 -7 10 -15z m-4020 -10
c0 -8 -7 -15 -15 -15 -8 0 -15 7 -15 15 0 8 7 15 15 15 8 0 15 -7 15 -15z
m-104 -6 c8 -14 -11 -33 -25 -25 -11 7 -4 36 9 36 5 0 12 -5 16 -11z m4051 -5
c-3 -3 -12 -4 -19 -1 -8 3 -5 6 6 6 11 1 17 -2 13 -5z m-4097 -38 c0 -8 6 -17
13 -19 6 -3 -3 -6 -20 -6 -31 -1 -44 15 -26 32 12 12 33 7 33 -7z m510 -6 c0
-5 -4 -10 -10 -10 -5 0 -10 5 -10 10 0 6 5 10 10 10 6 0 10 -4 10 -10z m2550
-19 c0 -6 -4 -13 -10 -16 -5 -3 -10 1 -10 9 0 9 5 16 10 16 6 0 10 -4 10 -9z
m-1922 -24 c2 -10 -3 -17 -12 -17 -18 0 -29 16 -21 31 9 14 29 6 33 -14z
m-738 -11 c0 -20 -26 -40 -35 -26 -10 16 2 40 20 40 8 0 15 -6 15 -14z m831 1
c-1 -12 -15 -9 -19 4 -3 6 1 10 8 8 6 -3 11 -8 11 -12z m1663 -8 c-3 -5 -10
-7 -15 -3 -5 3 -7 10 -3 15 3 5 10 7 15 3 5 -3 7 -10 3 -15z m1284 -28 c20
-12 10 -46 -12 -46 -27 0 -46 33 -26 45 18 12 21 12 38 1z m-4110 -26 c-4 -11
-28 -16 -28 -6 0 12 13 22 23 18 5 -1 7 -7 5 -12z m62 -5 c0 -5 -9 -14 -20
-20 -22 -12 -23 -10 -14 14 7 17 34 22 34 6z m241 -3 c-1 -12 -15 -9 -19 4 -3
6 1 10 8 8 6 -3 11 -8 11 -12z m97 -39 c-3 -7 -13 -13 -23 -13 -10 0 -20 6
-22 13 -3 7 5 12 22 12 17 0 25 -5 23 -12z m-398 -14 c0 -8 -5 -12 -10 -9 -6
4 -8 11 -5 16 9 14 15 11 15 -7z m300 -35 c0 -24 -23 -21 -28 4 -2 10 3 17 12
17 10 0 16 -9 16 -21z m103 -9 c3 -13 0 -20 -9 -20 -8 0 -14 2 -14 4 0 2 -3
11 -6 20 -4 10 -1 16 9 16 8 0 17 -9 20 -20z"/>
<path d="M1575 2800 c-3 -5 1 -10 10 -10 9 0 13 5 10 10 -3 6 -8 10 -10 10 -2
0 -7 -4 -10 -10z"/>
<path d="M950 2899 c0 -5 5 -7 10 -4 6 3 10 8 10 11 0 2 -4 4 -10 4 -5 0 -10
-5 -10 -11z"/>
<path d="M5045 2670 c3 -5 8 -10 11 -10 2 0 4 5 4 10 0 6 -5 10 -11 10 -5 0
-7 -4 -4 -10z"/>
<path d="M5173 2663 c15 -2 37 -2 50 0 12 2 0 4 -28 4 -27 0 -38 -2 -22 -4z"/>
<path d="M5408 2663 c12 -2 30 -2 40 0 9 3 -1 5 -23 4 -22 0 -30 -2 -17 -4z"/>
<path d="M4996 2636 c3 -9 11 -16 16 -16 13 0 5 23 -10 28 -7 2 -10 -2 -6 -12z"/>
<path d="M5437 2637 c-3 -8 1 -13 11 -12 21 1 28 19 9 23 -8 2 -17 -3 -20 -11z"/>
<path d="M5543 2633 c-7 -2 -13 -11 -13 -18 0 -8 -9 -19 -20 -25 -18 -10 -24
-7 -21 13 0 4 -3 7 -9 7 -5 0 -10 -8 -10 -17 0 -14 -2 -15 -9 -4 -5 8 -23 15
-40 16 -27 2 -31 0 -26 -15 5 -15 -1 -20 -27 -23 -18 -2 7 -3 56 -1 93 4 119
15 129 55 3 10 4 19 4 18 -1 0 -8 -3 -14 -6z"/>
<path d="M2537 2733 c-9 -18 -17 -42 -17 -55 0 -17 4 -14 20 17 11 22 19 47
17 55 -2 10 -9 3 -20 -17z"/>
<path d="M2557 2706 c-6 -16 2 -28 14 -20 12 7 11 34 0 34 -5 0 -11 -6 -14
-14z"/>
<path d="M3270 2690 c0 -5 5 -10 10 -10 6 0 10 5 10 10 0 6 -4 10 -10 10 -5 0
-10 -4 -10 -10z"/>
<path d="M2581 2654 c0 -11 3 -14 6 -6 3 7 2 16 -1 19 -3 4 -6 -2 -5 -13z"/>
<path d="M2540 2630 c0 -5 5 -10 10 -10 6 0 10 5 10 10 0 6 -4 10 -10 10 -5 0
-10 -4 -10 -10z"/>
<path d="M2570 2610 c0 -5 5 -10 11 -10 5 0 7 5 4 10 -3 6 -8 10 -11 10 -2 0
-4 -4 -4 -10z"/>
<path d="M2035 2820 c3 -5 8 -10 11 -10 2 0 4 5 4 10 0 6 -5 10 -11 10 -5 0
-7 -4 -4 -10z"/>
<path d="M3676 2676 c12 -10 14 -15 5 -20 -6 -4 -19 -2 -27 5 -8 6 -17 9 -21
6 -3 -4 2 -9 11 -13 9 -3 16 -15 16 -25 0 -15 -7 -19 -38 -19 -21 0 -43 5 -49
11 -8 8 -13 5 -18 -10 -8 -27 -23 -27 -27 0 -2 16 -11 22 -35 24 -27 2 -34 -2
-47 -28 -8 -17 -12 -35 -10 -39 3 -4 -2 -8 -10 -8 -9 0 -16 -7 -16 -15 0 -17
12 -19 26 -5 7 7 15 3 23 -14 9 -16 22 -23 40 -23 14 0 20 2 14 4 -7 3 -13 11
-13 19 0 8 6 11 15 8 8 -4 15 -14 15 -23 0 -10 7 -18 15 -18 8 0 15 4 15 9 0
4 5 8 10 8 12 0 9 -22 -5 -32 -5 -4 -6 -10 -2 -14 10 -10 52 36 62 67 4 13 12
30 17 36 6 7 22 36 37 65 l28 53 -24 1 c-22 2 -22 1 -7 -10z m-192 -141 c6
-18 5 -18 -7 -5 -8 8 -18 26 -22 40 -7 24 -6 24 7 5 8 -11 18 -29 22 -40z
m131 15 c3 -5 1 -10 -4 -10 -6 0 -11 5 -11 10 0 6 2 10 4 10 3 0 8 -4 11 -10z"/>
<path d="M3485 2650 c-3 -5 -1 -10 4 -10 6 0 11 5 11 10 0 6 -2 10 -4 10 -3 0
-8 -4 -11 -10z"/>
<path d="M3313 2450 c-13 -5 -23 -14 -23 -20 0 -12 35 3 45 20 7 12 7 12 -22
0z"/>
<path d="M3128 2403 c7 -3 16 -2 19 1 4 3 -2 6 -13 5 -11 0 -14 -3 -6 -6z"/>
<path d="M3430 2339 c0 -5 5 -7 10 -4 6 3 10 8 10 11 0 2 -4 4 -10 4 -5 0 -10
-5 -10 -11z"/>
<path d="M8806 4271 c-3 -5 0 -11 7 -13 17 -7 38 2 31 13 -7 12 -31 12 -38 0z"/>
<path d="M8483 4128 c-19 -30 -36 -65 -43 -90 -8 -26 -7 -28 20 -28 16 0 42
11 58 25 17 14 34 25 39 25 4 0 13 8 20 19 10 15 8 22 -8 40 -22 23 -73 28
-86 9z"/>
<path d="M8647 4013 c-17 -16 -5 -33 23 -33 34 0 39 14 11 30 -23 12 -26 12
-34 3z"/>
<path d="M8435 3870 c-3 -5 1 -10 9 -10 9 0 16 5 16 10 0 6 -4 10 -9 10 -6 0
-13 -4 -16 -10z"/>
<path d="M5355 3650 c-16 -4 -47 -17 -68 -30 -36 -21 -37 -23 -21 -41 24 -26
36 -24 28 6 -5 19 -2 25 10 25 9 0 16 -4 16 -10 0 -21 47 -9 74 19 24 25 25
29 9 33 -10 2 -31 1 -48 -2z"/>
<path d="M5330 3567 c0 -7 -14 -21 -31 -31 -24 -14 -28 -21 -18 -27 8 -5 10
-9 4 -9 -7 0 -7 -3 0 -8 6 -4 15 -16 21 -27 6 -11 23 -26 38 -33 24 -12 30
-12 45 2 20 18 48 21 53 6 2 -6 9 -1 16 10 10 17 10 20 -3 20 -8 0 -15 5 -15
10 0 6 6 9 13 8 7 -2 11 5 9 17 -6 32 -20 41 -42 27 -27 -16 -27 -16 -45 18
-16 30 -45 41 -45 17z"/>
<path d="M5250 3446 c0 -9 5 -16 10 -16 6 0 10 4 10 9 0 6 -4 13 -10 16 -5 3
-10 -1 -10 -9z"/>
<path d="M6445 3435 c23 -8 175 -11 175 -3 0 4 -42 8 -92 7 -51 0 -88 -2 -83
-4z"/>
<path d="M5595 3400 c3 -5 12 -7 20 -3 21 7 19 13 -6 13 -11 0 -18 -4 -14 -10z"/>
<path d="M5990 3341 c-13 -25 -13 -44 0 -36 5 3 29 6 54 7 29 0 47 6 50 15 4
10 1 13 -14 8 -10 -3 -33 1 -49 10 -28 14 -31 14 -41 -4z"/>
<path d="M4294 2996 c-19 -19 -34 -44 -34 -56 l0 -23 154 5 c164 5 179 9 197
56 18 46 0 52 -148 52 l-135 0 -34 -34z"/>
<path d="M7336 2964 c-11 -8 -16 -14 -10 -14 13 0 39 18 34 24 -3 2 -14 -2
-24 -10z"/>
<path d="M5865 2770 c3 -5 8 -10 11 -10 2 0 4 5 4 10 0 6 -5 10 -11 10 -5 0
-7 -4 -4 -10z"/>
<path d="M4103 2694 c-3 -8 -1 -20 4 -25 7 -7 12 -2 15 15 6 28 -9 36 -19 10z"/>
<path d="M4142 2678 c-7 -7 -12 -19 -12 -27 0 -11 5 -8 16 7 18 25 15 39 -4
20z"/>
<path d="M3918 2645 c2 -14 10 -25 18 -25 11 0 11 5 2 25 -6 14 -14 25 -18 25
-4 0 -5 -11 -2 -25z"/>
<path d="M4165 2661 c-3 -6 -4 -11 -1 -11 3 0 -2 -9 -11 -20 -10 -11 -26 -20
-36 -20 -10 0 -16 -4 -12 -10 3 -5 12 -7 20 -3 9 3 29 0 46 -7 23 -10 33 -10
42 -1 6 6 15 11 20 11 14 0 -4 -21 -27 -31 -21 -9 276 -5 319 4 43 9 65 20 59
28 -3 5 5 13 18 18 25 10 20 12 -49 16 -27 2 -47 -2 -54 -11 -13 -16 -39 -19
-39 -4 0 6 -10 11 -22 11 -19 1 -17 3 7 9 26 7 24 8 -20 9 -27 1 -68 4 -89 8
-29 5 -37 3 -32 -6 5 -7 10 -10 13 -7 3 3 17 -4 31 -14 13 -11 38 -20 55 -20
17 0 28 -3 25 -6 -4 -3 -32 -2 -63 1 -38 5 -52 10 -44 16 16 10 3 13 -38 9
-15 -1 -23 4 -23 14 0 11 -9 16 -29 16 -16 0 -36 3 -44 6 -8 3 -18 1 -22 -5z
m78 -28 c-7 -2 -19 -2 -25 0 -7 3 -2 5 12 5 14 0 19 -2 13 -5z m-40 -20 c-7
-2 -21 -2 -30 0 -10 3 -4 5 12 5 17 0 24 -2 18 -5z m327 -3 c0 -5 -2 -10 -4
-10 -2 0 -12 -3 -22 -7 -16 -6 -17 -5 -4 10 17 19 30 22 30 7z"/>
<path d="M4480 2645 c0 -17 11 -20 26 -6 5 6 29 11 54 14 38 3 36 4 -17 5 -50
2 -63 -1 -63 -13z"/>
<path d="M4020 2623 c-8 -4 -21 -12 -28 -20 -15 -15 -16 -14 53 -32 22 -6 58
-11 80 -10 35 0 37 2 15 9 -14 4 -38 11 -54 15 -15 3 -26 9 -22 12 6 7 -12 34
-23 32 -3 0 -13 -3 -21 -6z"/>
<path d="M3955 2610 c-3 -5 -2 -10 4 -10 5 0 13 5 16 10 3 6 2 10 -4 10 -5 0
-13 -4 -16 -10z"/>
<path d="M6133 2393 c15 -2 37 -2 50 0 12 2 0 4 -28 4 -27 0 -38 -2 -22 -4z"/>
<path d="M6920 2095 c0 -8 -7 -15 -15 -15 -20 0 -19 -16 2 -24 9 -4 20 -1 25
6 11 18 10 48 -2 48 -5 0 -10 -7 -10 -15z"/>
<path d="M4750 2051 c0 -5 5 -13 10 -16 6 -3 10 -2 10 4 0 5 -4 13 -10 16 -5
3 -10 2 -10 -4z"/>
<path d="M4890 1675 c0 -8 4 -15 9 -15 5 0 12 -8 15 -18 3 -10 14 -18 23 -18
10 -1 25 -3 33 -5 19 -5 26 34 8 48 -7 6 -30 13 -50 17 -31 6 -38 4 -38 -9z"/>
<path d="M3910 1610 c0 -5 5 -10 10 -10 6 0 10 5 10 10 0 6 -4 10 -10 10 -5 0
-10 -4 -10 -10z"/>
<path d="M7950 1426 c0 -20 14 -28 36 -19 16 6 16 7 -2 20 -23 17 -34 17 -34
-1z"/>
<path d="M5008 1213 c7 -3 16 -2 19 1 4 3 -2 6 -13 5 -11 0 -14 -3 -6 -6z"/>
<path d="M7765 1150 c-3 -5 3 -10 15 -10 12 0 18 5 15 10 -3 6 -10 10 -15 10
-5 0 -12 -4 -15 -10z"/>
<path d="M8480 1050 c0 -5 -10 -20 -21 -31 -16 -16 -18 -23 -9 -29 9 -6 9 -9
-1 -13 -14 -5 48 -37 71 -37 20 0 29 46 18 84 -9 28 -17 36 -35 36 -13 0 -23
-4 -23 -10z"/>
<path d="M5080 810 c0 -11 2 -20 4 -20 2 0 6 9 9 20 3 11 1 20 -4 20 -5 0 -9
-9 -9 -20z"/>
<path d="M5400 675 c-10 -13 -9 -15 9 -15 12 0 21 6 21 15 0 8 -4 15 -9 15 -5
0 -14 -7 -21 -15z"/>
<path d="M8680 435 c0 -15 4 -24 10 -20 6 3 10 12 10 20 0 8 -4 17 -10 20 -6
4 -10 -5 -10 -20z"/>
</g>
</svg>
